<svg width="20" height="20" viewBox="0 0 20 20" xmlns="http://www.w3.org/2000/svg">
<path
	d="M10 0C4.4775 0 0 4.47667 0 10C0 14.2367 2.63583 17.855 6.35583 19.3117C6.26833 18.5208 6.18917 17.3075 6.39083 16.4442C6.5725 15.6633 7.56333 11.4733 7.56333 11.4733C7.56333 11.4733 7.26417 10.8742 7.26417 9.98833C7.26417 8.59833 8.07 7.56 9.07333 7.56C9.92583 7.56 10.3383 8.20083 10.3383 8.96833C10.3383 9.82583 9.7925 11.1083 9.51 12.2975C9.27417 13.2925 10.0092 14.105 10.9908 14.105C12.7683 14.105 14.1342 12.2308 14.1342 9.52583C14.1342 7.13167 12.4142 5.4575 9.9575 5.4575C7.1125 5.4575 5.4425 7.59167 5.4425 9.79667C5.4425 10.6558 5.77333 11.5783 6.18667 12.0783C6.22204 12.1162 6.24701 12.1626 6.25913 12.213C6.27125 12.2634 6.27012 12.316 6.25583 12.3658C6.18 12.6808 6.01167 13.3608 5.97833 13.5C5.935 13.6833 5.83333 13.7217 5.64417 13.6333C4.395 13.0517 3.61417 11.2258 3.61417 9.75917C3.61417 6.605 5.90583 3.7075 10.2217 3.7075C13.6908 3.7075 16.3867 6.18 16.3867 9.48333C16.3867 12.93 14.2142 15.7033 11.1975 15.7033C10.1842 15.7033 9.23167 15.1767 8.90583 14.555L8.2825 16.9325C8.05667 17.8017 7.4475 18.8908 7.03917 19.5542C7.975 19.8433 8.96917 20 10 20C15.5225 20 20 15.5225 20 10C20 4.47667 15.5225 0 10 0Z" fill="currentColor"/>
</svg>
